<svg [attr.width]="width+'px'" [attr.height]="height+'px'" viewBox="0 0 10 10" version="1.1" xmlns="http://www.w3.org/2000/svg" xmlns:xlink="http://www.w3.org/1999/xlink">
    <title>Path</title>
    <g id="softway" stroke="none" stroke-width="1" fill="none" fill-rule="evenodd">
        <g id="PARAMETRES-SUCCESS" transform="translate(-1105.000000, -190.000000)" [attr.fill]="color" fill-rule="nonzero">
            <g id="Rectangle-2-Copy" transform="translate(1071.000000, 160.000000)">
                <g id="Group-14" transform="translate(25.000000, 21.000000)">
                    <g id="d-remove" transform="translate(9.000000, 9.000000)">
                        <path d="M9.86363636,1.5 L8.5,0.136363636 C8.31818182,-0.0454545455 8.04545455,-0.0454545455 7.86363636,0.136363636 L5,3 L2.13636364,0.136363636 C1.95454545,-0.0454545455 1.68181818,-0.0454545455 1.5,0.136363636 L0.136363636,1.5 C-0.0454545455,1.68181818 -0.0454545455,1.95454545 0.136363636,2.13636364 L3,5 L0.136363636,7.86363636 C-0.0454545455,8.04545455 -0.0454545455,8.31818182 0.136363636,8.5 L1.5,9.86363636 C1.68181818,10.0454545 1.95454545,10.0454545 2.13636364,9.86363636 L5,7 L7.86363636,9.86363636 C7.95454545,9.95454545 8.09090909,10 8.18181818,10 C8.27272727,10 8.40909091,9.95454545 8.5,9.86363636 L9.86363636,8.5 C10.0454545,8.31818182 10.0454545,8.04545455 9.86363636,7.86363636 L7,5 L9.86363636,2.13636364 C10.0454545,1.95454545 10.0454545,1.68181818 9.86363636,1.5 Z" id="Path"></path>
                    </g>
                </g>
            </g>
        </g>
    </g>
</svg>
