<svg [attr.width]="width+'px'" [attr.height]="height+'px'" viewBox="0 0 17 17" version="1.1" xmlns="http://www.w3.org/2000/svg" xmlns:xlink="http://www.w3.org/1999/xlink">
  <g id="softway" stroke="none" stroke-width="1" fill="none" fill-rule="evenodd">
    <g id="LISTE-DES-PROJETS---COLONNES" transform="translate(-1403.000000, -19.000000)" [attr.fill]="color" fill-rule="nonzero">
      <g id="Group-13" transform="translate(1403.000000, 19.000000)">
        <path d="M16.6357143,0.364285714 C16.15,-0.121428571 15.4214286,-0.121428571 14.9357143,0.364285714 L8.5,6.8 L2.06428571,0.364285714 C1.57857143,-0.121428571 0.85,-0.121428571 0.364285714,0.364285714 C-0.121428571,0.85 -0.121428571,1.57857143 0.364285714,2.06428571 L6.8,8.5 L0.364285714,14.9357143 C-0.121428571,15.4214286 -0.121428571,16.15 0.364285714,16.6357143 C0.607142857,16.8785714 0.85,17 1.21428571,17 C1.57857143,17 1.82142857,16.8785714 2.06428571,16.6357143 L8.5,10.2 L14.9357143,16.6357143 C15.1785714,16.8785714 15.5428571,17 15.7857143,17 C16.0285714,17 16.3928571,16.8785714 16.6357143,16.6357143 C17.1214286,16.15 17.1214286,15.4214286 16.6357143,14.9357143 L10.2,8.5 L16.6357143,2.06428571 C17.1214286,1.57857143 17.1214286,0.85 16.6357143,0.364285714 Z" id="Path"></path>
      </g>
    </g>
  </g>
</svg>
